FILE "worms.bin" BINARY
  TRACK 01 MODE1/2352
    INDEX 01 00:00:00
FILE "02.ogg" OGG
  TRACK 02 AUDIO
    INDEX 01 00:00:00
FILE "03.ogg" OGG
  TRACK 03 AUDIO
    INDEX 01 00:00:00
FILE "04.ogg" OGG
  TRACK 04 AUDIO
    INDEX 01 00:00:00
FILE "05.ogg" OGG
  TRACK 05 AUDIO
    INDEX 01 00:00:00
FILE "06.ogg" OGG
  TRACK 06 AUDIO
    INDEX 01 00:00:00
FILE "07.ogg" OGG
 TRACK 07 AUDIO
    INDEX 01 00:00:00
FILE "08.ogg" OGG
  TRACK 08 AUDIO
    INDEX 01 00:00:00
FILE "09.ogg" OGG
  TRACK 09 AUDIO
    INDEX 01 00:00:00
FILE "10.ogg" OGG
  TRACK 10 AUDIO
    INDEX 01 00:00:00
FILE "11.ogg" OGG
  TRACK 11 AUDIO
    INDEX 01 00:00:00
FILE "12.ogg" OGG
  TRACK 12 AUDIO
    INDEX 01 00:00:00
FILE "13.ogg" OGG
  TRACK 13 AUDIO
    INDEX 01 00:00:00
FILE "14.ogg" OGG
  TRACK 14 AUDIO
    INDEX 01 00:00:00
FILE "15.ogg" OGG
  TRACK 15 AUDIO
    INDEX 01 00:00:00
FILE "16.ogg" OGG
  TRACK 16 AUDIO
    INDEX 01 00:00:00
FILE "17.ogg" OGG
  TRACK 17 AUDIO
    INDEX 01 00:00:00
FILE "18.ogg" OGG
  TRACK 18 AUDIO
    INDEX 01 00:00:00

